/vscmnt/brussel_pixiu_data/_data_brussel/112/vsc11236/PredSimResults/SUBJ09opt3D/weighted-expIG/worker_01.mot
version=1
nRows=10
nColumns=50
inDegrees=yes
endheader
                time	         pelvis_tilt	         pelvis_list	     pelvis_rotation	           pelvis_tx	           pelvis_ty	           pelvis_tz	       hip_flexion_r	     hip_adduction_r	      hip_rotation_r	        knee_angle_r	       ankle_angle_r	         mtp_angle_r	       hip_flexion_l	     hip_adduction_l	      hip_rotation_l	        knee_angle_l	       ankle_angle_l	         mtp_angle_l	    lumbar_extension	      lumbar_bending	     lumbar_rotation	 ercspn_r/activation	 intobl_r/activation	 extobl_r/activation	    abd_r/activation	    add_r/activation	hamstrings_r/activation	bifemsh_r/activation	glut_max_r/activation	iliopsoas_r/activation	rect_fem_r/activation	  vasti_r/activation	gastroc_r/activation	 soleus_r/activation	tib_ant_r/activation	 ercspn_l/activation	 intobl_l/activation	 extobl_l/activation	    abd_l/activation	    add_l/activation	hamstrings_l/activation	bifemsh_l/activation	glut_max_l/activation	iliopsoas_l/activation	rect_fem_l/activation	  vasti_l/activation	gastroc_l/activation	 soleus_l/activation	tib_ant_l/activation	
          0.00000000	         -4.01564669	         -0.72338124	          7.76045844	          0.00000000	          0.99026652	         -0.00259757	         28.40750309	         -1.68587719	         -8.27033348	         -5.94803181	          3.94206662	          0.24398555	        -13.88748184	         -2.25459726	         -4.92495800	         -9.81334581	          4.32971178	         36.17270528	        -13.65296444	         -1.58454650	         -7.28269575	          0.02793735	          0.16378764	          0.03400202	          0.01000323	          0.23296876	          0.05657871	          0.12841775	          0.07989308	          0.13066310	          0.01224489	          0.01000857	          0.01398724	          0.01000650	          0.31705356	          0.02644676	          0.01000515	          0.01000700	          0.03120122	          0.01042624	          0.01705256	          0.21820140	          0.01236373	          0.03264899	          0.01002315	          0.01000963	          0.32079488	          0.22563006	          0.01298501	
          0.01281986	         -4.05595791	         -0.83642190	          7.78310230	          0.01976112	          0.98807369	         -0.00183909	         28.39274071	         -1.53371953	         -8.41208198	         -7.83516526	          3.53174614	          0.20821627	        -14.54687907	         -2.59172229	         -5.33598039	        -10.50078851	          3.22839519	         37.76647252	        -13.14367022	         -1.12486471	         -7.46959309	          0.02302204	          0.13495359	          0.02801633	          0.06025295	          0.19198117	          0.06146995	          0.10581257	          0.11767588	          0.10766023	          0.01009054	          0.01000583	          0.01217337	          0.01213972	          0.35372592	          0.02180389	          0.01000253	          0.01001567	          0.02570841	          0.01001811	          0.01791637	          0.17981457	          0.01019006	          0.02692035	          0.01000773	          0.01000770	          0.29251011	          0.20310955	          0.01069926	
          0.02563972	         -4.07783993	         -0.96629366	          7.77370091	          0.03982958	          0.98620147	         -0.00100006	         28.25796187	         -1.36350721	         -8.56555895	         -9.56398694	          2.99300704	          0.20052546	        -15.02318717	         -2.96786040	         -5.77016811	        -11.55573666	          1.98934210	         39.33024265	        -12.61494427	         -0.64607516	         -7.62259604	          0.02004686	          0.11119548	          0.02308441	          0.11525693	          0.20816389	          0.05409443	          0.08718661	          0.14774156	          0.08870700	          0.01000342	          0.01000442	          0.01003175	          0.01000334	          0.39643151	          0.02242712	          0.01000134	          0.01000343	          0.02118260	          0.01000590	          0.01477046	          0.14816742	          0.01000201	          0.05023790	          0.01001244	          0.01000525	          0.25086346	          0.17584301	          0.01000081	
          0.03845958	         -4.08301609	         -1.09717847	          7.73165427	          0.05986418	          0.98484408	         -0.00006436	         28.14088502	         -1.19019609	         -8.74437338	        -11.34195517	          2.44653759	          0.16877561	        -15.21727875	         -3.37453844	         -6.22109970	        -13.11780091	          0.63653619	         40.73535504	        -12.10839264	         -0.16680327	         -7.74013628	          0.02912420	          0.09161988	          0.01902079	          0.16397666	          0.24572535	          0.05182383	          0.07183932	          0.14923308	          0.07309044	          0.01000641	          0.06181567	          0.01001252	          0.01001099	          0.41766473	          0.07392294	          0.01000391	          0.01000289	          0.01745354	          0.01739488	          0.02739801	          0.12208882	          0.01000472	          0.04142028	          0.01000943	          0.01001172	          0.20670001	          0.14488717	          0.01000081	
          0.05127944	         -4.07298751	         -1.23074929	          7.66537884	          0.07965067	          0.98413050	          0.00095659	         28.07410530	         -1.01246209	         -8.90346758	        -13.26140696	          2.20499557	          0.13222358	        -15.05635893	         -3.82285158	         -6.68812775	        -15.28821697	         -0.78674845	         41.77561669	        -11.64350195	          0.31434127	         -7.82583626	          0.02622191	          0.07549054	          0.01567264	          0.19058811	          0.26517066	          0.05129955	          0.05919393	          0.16660863	          0.06022315	          0.01000562	          0.16189999	          0.01001172	          0.01000650	          0.42124559	          0.09216001	          0.01000531	          0.01000309	          0.01438099	          0.10520948	          0.03601980	          0.10060394	          0.01000148	          0.04917389	          0.01000458	          0.01000252	          0.17031096	          0.11938029	          0.01000153	
          0.06409929	         -4.05103936	         -1.35439253	          7.57406072	          0.09902032	          0.98418393	          0.00202830	         27.97947943	         -0.82930673	         -9.02688506	        -15.16494999	          2.30170607	          0.09897387	        -14.48482902	         -4.30421421	         -7.22051135	        -18.13715315	         -2.21642890	         42.11947370	        -11.23596861	          0.78522756	         -7.87679393	          0.02168363	          0.06220077	          0.01291413	          0.19866797	          0.29298515	          0.05286553	          0.04877485	          0.17206825	          0.04962112	          0.01000468	          0.20221909	          0.01000795	          0.01000394	          0.39557265	          0.09441096	          0.01000845	          0.01000341	          0.01184943	          0.16563176	          0.03641989	          0.08290400	          0.01000109	          0.04054916	          0.01000375	          0.01000165	          0.14032805	          0.09836374	          0.01000132	
          0.07691915	         -4.01940745	         -1.45022968	          7.45511467	          0.11790693	          0.98501497	          0.00311511	         27.78366238	         -0.64948309	         -9.11685387	        -16.91432164	          2.72961730	          0.08696733	        -13.48680689	         -4.81593756	         -7.84435214	        -21.68642594	         -3.61358218	         41.48233646	        -10.89138543	          1.22817949	         -7.88894678	          0.01787720	          0.05125068	          0.01064181	          0.19731532	          0.29218044	          0.05765024	          0.04019014	          0.17277651	          0.04088555	          0.01000436	          0.24251375	          0.01001385	          0.01000923	          0.34437582	          0.08497293	          0.01000695	          0.01000408	          0.01000050	          0.22098919	          0.04156863	          0.06835565	          0.01000084	          0.03342230	          0.01000306	          0.01000090	          0.11562358	          0.08104707	          0.01000150	
          0.08973901	         -3.98003434	         -1.50201476	          7.30483616	          0.13629276	          0.98657666	          0.00417818	         27.41333665	         -0.47740826	         -9.15771323	        -18.35924656	          3.40393506	          0.15110300	        -12.09229429	         -5.35433212	         -8.54622804	        -25.82072957	         -5.15587873	         39.92586833	        -10.60997790	          1.62842308	         -7.85656840	          0.01473409	          0.04222836	          0.01000500	          0.19515439	          0.28319383	          0.06160084	          0.03311678	          0.18070444	          0.03368787	          0.01000321	          0.26468676	          0.01001108	          0.01000526	          0.29026433	          0.07003043	          0.01000786	          0.01000633	          0.01000073	          0.27902138	          0.03977373	          0.06111308	          0.01000091	          0.02754333	          0.01000228	          0.01000055	          0.09526830	          0.06677896	          0.02411654	
          0.10255887	         -3.93449630	         -1.49485604	          7.12045432	          0.15415191	          0.98877237	          0.00518229	         26.82934181	         -0.32142657	         -9.12932956	        -19.39610035	          4.13866849	          0.33246605	        -10.35854625	         -5.91012344	         -9.27472797	        -30.39726447	         -6.80112739	         37.25843447	        -10.39373885	          1.97198295	         -7.77388693	          0.01214450	          0.03479440	          0.01000541	          0.19262529	          0.23335583	          0.06204139	          0.02728861	          0.14911709	          0.02775734	          0.01000309	          0.27641824	          0.01000719	          0.01000328	          0.23958653	          0.07530883	          0.03952661	          0.03422578	          0.01000062	          0.23835027	          0.03277368	          0.05036714	          0.01000129	          0.02269810	          0.01000276	          0.01000059	          0.07849658	          0.05502273	          0.07586755	
          0.11537873	         -3.88310055	         -1.42891860	          6.90468608	          0.17142742	          0.99143710	          0.00613017	         26.05940937	         -0.18586245	         -9.02289558	        -20.05505262	          4.85971244	          0.65548517	         -8.36651106	         -6.46536891	         -9.90309519	        -35.25431130	         -8.27394314	         33.22344199	        -10.25030484	          2.25259160	         -7.63656054	          0.01002428	          0.02866920	          0.01000370	          0.15896200	          0.19890458	          0.06010516	          0.02248626	          0.12305875	          0.02287088	          0.01000368	          0.28221571	          0.01000675	          0.01000417	          0.19741556	          0.10117937	          0.07306044	          0.09927827	          0.01007430	          0.19639078	          0.02700475	          0.04151044	          0.01001071	          0.01870625	          0.01000925	          0.01000089	          0.06467755	          0.04533615	          0.17850158	
